<svg width="20" height="20" viewBox="0 0 20 20" fill="none" xmlns="http://www.w3.org/2000/svg">
<g clip-path="url(#clip0_601_98)">
<path d="M15.3027 2.5H4.69727C3.48584 2.5 2.5 3.48584 2.5 4.69727V15.3027C2.5 16.5145 3.48584 17.5 4.69727 17.5H15.3027C16.5145 17.5 17.5 16.5145 17.5 15.3027V4.69727C17.5 3.48584 16.5145 2.5 15.3027 2.5ZM16.6211 15.3027C16.6211 16.0296 16.0296 16.6211 15.3027 16.6211H4.69727C3.97041 16.6211 3.37891 16.0296 3.37891 15.3027V4.69727C3.37891 3.97041 3.97041 3.37891 4.69727 3.37891H15.3027C16.0296 3.37891 16.6211 3.97041 16.6211 4.69727V15.3027Z" fill="#444444"/>
<path d="M14.834 4.28711C14.3494 4.28711 13.9551 4.68145 13.9551 5.16602C13.9551 5.65059 14.3494 6.04492 14.834 6.04492C15.3186 6.04492 15.7129 5.65059 15.7129 5.16602C15.7129 4.68145 15.3186 4.28711 14.834 4.28711Z" fill="#444444"/>
<path d="M10 6.04492C7.81914 6.04492 6.04492 7.81914 6.04492 10C6.04492 12.1809 7.81914 13.9551 10 13.9551C12.1809 13.9551 13.9551 12.1809 13.9551 10C13.9551 7.81914 12.1809 6.04492 10 6.04492ZM10 13.0762C8.30371 13.0762 6.92383 11.6963 6.92383 10C6.92383 8.30371 8.30371 6.92383 10 6.92383C11.6963 6.92383 13.0762 8.30371 13.0762 10C13.0762 11.6963 11.6963 13.0762 10 13.0762Z" fill="#444444"/>
</g>
<defs>
<clipPath id="clip0_601_98">
<rect width="15" height="15" fill="white" transform="translate(2.5 2.5)"/>
</clipPath>
</defs>
</svg>
