<svg width="20" height="17" viewBox="0 0 20 17" fill="none" xmlns="http://www.w3.org/2000/svg">
<path d="M19.4213 1.74644L11.4703 16.5153C11.4038 16.639 11.291 16.7405 11.1495 16.8038C11.0081 16.8671 10.846 16.8888 10.6885 16.8653C10.5311 16.8418 10.3872 16.7746 10.2794 16.6742C10.1717 16.5737 10.106 16.4457 10.0928 16.3101L9.42057 9.44459L1.35633 8.8723C1.19706 8.86103 1.04667 8.80515 0.928672 8.71338C0.810675 8.62161 0.731728 8.49914 0.70418 8.36511C0.676631 8.23109 0.702034 8.09307 0.776416 7.97264C0.850798 7.85221 0.969963 7.75617 1.11528 7.69953L18.4628 0.930461C18.5969 0.878137 18.7466 0.862 18.8918 0.884217C19.037 0.906435 19.1708 0.965943 19.2751 1.05475C19.3794 1.14356 19.4493 1.25741 19.4754 1.38102C19.5015 1.50463 19.4825 1.63208 19.4211 1.74626L19.4213 1.74644Z" fill="#FA7436"/>
</svg>
