<svg width="42" height="48" viewBox="0 0 42 48" fill="none" xmlns="http://www.w3.org/2000/svg">
<path d="M18.4403 0.103802C12.377 0.713886 6.79244 4.10219 3.32905 9.2832C1.6959 11.7329 0.466352 15.1212 0.0909168 18.1998C-0.0498716 19.373 -0.0217139 21.5881 0.137846 22.5361C1.15152 28.3084 6.86753 36.4554 16.0469 45.203C17.9335 46.9957 18.3559 47.3524 18.9472 47.6527C19.6136 47.9812 19.698 48 20.5522 48C21.4063 48 21.4907 47.9812 22.1571 47.6527C22.7485 47.3524 23.1708 46.9957 25.0574 45.203C31.0174 39.5245 35.8136 33.7334 38.4604 28.9936C39.7651 26.6471 40.5441 24.6667 40.9289 22.6956C41.1354 21.635 41.173 19.5232 41.0134 18.1998C40.6661 15.3183 39.5961 12.2304 38.1319 9.84636C36.9962 8.00672 35.1284 5.8949 33.4484 4.53394C29.2623 1.17379 23.8184 -0.440578 18.4403 0.103802ZM23.5556 1.6337C28.5208 2.45966 32.9509 5.14402 35.9169 9.13303C37.8973 11.7892 39.0799 14.6707 39.568 18.0121C39.7932 19.6171 39.7182 21.9635 39.3803 23.2212C37.9161 28.7777 32.6787 35.9391 23.9405 44.3207C22.7766 45.4283 21.838 46.2542 21.594 46.3762C21.0308 46.6484 20.402 46.6954 19.8201 46.4983C19.2569 46.3199 17.9992 45.1936 15.2116 42.406C9.2797 36.4835 5.39395 31.4902 3.18826 26.9756C1.81792 24.188 1.40494 22.6299 1.40494 20.3116C1.40494 11.7517 7.45884 4.10219 15.9155 1.97159C16.6289 1.79326 18.1306 1.53046 18.9096 1.45537C19.698 1.38028 22.7015 1.49291 23.5556 1.6337Z" fill="#FFB60A"/>
<path d="M18.9568 5.25629C15.4558 5.65988 12.443 7.05838 9.90876 9.47055C7.62799 11.6481 6.11687 14.3606 5.42231 17.5706C5.24398 18.3965 5.21582 18.8095 5.21582 20.5928C5.21582 22.3761 5.24398 22.7891 5.42231 23.6057C5.88222 25.7081 6.79265 27.82 7.94711 29.4625C8.85755 30.7484 10.6033 32.4566 11.861 33.3013C15.3244 35.6103 19.0506 36.4362 23.1335 35.7886C23.6497 35.7041 24.2035 35.5821 24.3724 35.5164C24.8605 35.3099 24.9262 34.6529 24.4851 34.3244C24.2504 34.1461 24.2316 34.1461 23.171 34.3525C21.7725 34.6341 19.4542 34.6529 18.112 34.3995C15.2306 33.8457 12.7151 32.5223 10.6503 30.448C9.32684 29.134 7.83448 26.9471 8.12545 26.7594C8.18176 26.7218 9.2893 25.8114 10.5752 24.7414C12.1051 23.4743 12.9498 22.714 12.9873 22.5639C13.1187 22.057 12.5368 21.5314 12.0769 21.7473C11.9643 21.7942 10.8755 22.6671 9.66473 23.6714L7.45905 25.5016L7.32765 25.2107C7.12116 24.7226 6.77388 23.249 6.65186 22.3574C6.48292 21.0903 6.59555 18.7626 6.87712 17.5424C8.06913 12.521 11.6827 8.64459 16.5446 7.1804C17.9806 6.74865 18.8911 6.61724 20.5524 6.61724C22.3732 6.61724 23.3681 6.7768 24.9731 7.3118C26.8691 7.94065 28.5585 8.92617 29.957 10.212C30.8018 11.0005 31.1209 11.1131 31.4775 10.7564C31.9187 10.3153 31.8248 10.0525 30.9425 9.21713C27.8546 6.29812 23.2273 4.76822 18.9568 5.25629Z" fill="#FFB60A"/>
<path d="M23.9315 11.6953C23.3214 11.9206 22.5048 12.7559 22.289 13.4035C21.9135 14.5392 22.2984 15.8157 23.2276 16.529C24.6542 17.6178 26.6346 17.1485 27.4794 15.5248C27.836 14.8302 27.836 13.8541 27.47 13.1126C27.1509 12.465 26.522 11.883 25.9307 11.6859C25.3863 11.4982 24.4853 11.5076 23.9315 11.6953ZM25.621 13.0844C26.4751 13.5256 26.5971 14.7176 25.8556 15.3652C25.2455 15.9096 24.2788 15.7969 23.8001 15.1305C23.5279 14.7551 23.4997 14.0042 23.7344 13.6194C24.1286 13 24.9827 12.7559 25.621 13.0844Z" fill="#FFB60A"/>
<path d="M32.3879 12.155C32.1439 12.4647 32.1439 12.6242 32.3785 13.0372C32.8666 13.8913 33.5048 15.2148 33.7395 15.853C34.2651 17.3266 34.4528 18.3872 34.5091 20.2831C34.5373 21.2593 34.5373 22.0477 34.4997 22.0477C34.4622 22.0477 33.5799 21.3625 32.5381 20.5272C31.4963 19.6824 30.492 18.9222 30.3136 18.8377C29.9007 18.6218 29.3375 18.6312 28.8588 18.8471C28.6523 18.9503 27.6856 19.6824 26.7188 20.499C25.4987 21.5033 24.9168 21.935 24.8417 21.8787C24.776 21.8318 23.4526 20.7806 21.9039 19.5323C20.3458 18.2933 18.9755 17.2515 18.8629 17.2139C18.4311 17.0732 17.7459 17.1389 17.3987 17.3453C16.7229 17.7489 14.001 20.0766 13.9446 20.3113C13.8132 20.8181 14.3952 21.3437 14.8551 21.1372C14.9677 21.0809 15.7186 20.4896 16.5164 19.8232C17.3142 19.1568 18.0369 18.5843 18.1214 18.5561C18.2058 18.5186 18.3748 18.5655 18.5062 18.65C19.0506 19.016 31.6277 29.1153 31.6277 29.1903C31.6277 29.2279 31.1771 29.7253 30.6234 30.2885C29.5065 31.4242 28.6148 32.1187 27.404 32.8039C26.9629 33.0479 26.5311 33.3107 26.4467 33.3858C26.212 33.5829 26.2308 34.1085 26.4654 34.3432C26.7282 34.606 27.038 34.5778 27.7137 34.2399C31.0739 32.5505 33.946 29.1622 35.1849 25.4454C35.7762 23.6714 35.8889 22.8736 35.8889 20.5929C35.8889 18.3215 35.7762 17.5237 35.1849 15.7404C34.8376 14.6704 33.899 12.7369 33.5048 12.2582C33.1294 11.8171 32.6883 11.7701 32.3879 12.155ZM31.9656 21.86C33.824 23.3429 34.1994 23.6808 34.1806 23.8592C34.068 24.6288 32.998 27.2005 32.5475 27.8012C32.4348 27.9514 32.1439 27.7355 29.253 25.4172C27.5073 24.0187 26.0994 22.8549 26.1275 22.8267C26.5405 22.4043 29.4595 20.0766 29.5722 20.0766C29.6566 20.0766 30.7266 20.8838 31.9656 21.86Z" fill="#FFB60A"/>
</svg>
