<svg width="20" height="20" viewBox="0 0 20 20" fill="none" xmlns="http://www.w3.org/2000/svg">
<path d="M16.5385 6.30223C16.035 6.52308 15.4985 6.66946 14.9392 6.74054C15.5146 6.397 15.9538 5.85715 16.1602 5.20646C15.6238 5.52631 15.0315 5.75223 14.4002 5.87831C13.8908 5.33592 13.1648 5 12.3728 5C10.8362 5 9.59915 6.24723 9.59915 7.77623C9.59915 7.99623 9.61777 8.20777 9.66346 8.40915C7.356 8.29662 5.31423 7.19069 3.94262 5.506C3.70315 5.92146 3.56269 6.397 3.56269 6.90892C3.56269 7.87015 4.05769 8.72223 4.79554 9.21554C4.34962 9.20708 3.91215 9.07762 3.54154 8.87369C3.54154 8.88215 3.54154 8.89315 3.54154 8.90415C3.54154 10.2529 4.50362 11.3732 5.76523 11.6313C5.53931 11.6931 5.29308 11.7227 5.03754 11.7227C4.85985 11.7227 4.68046 11.7125 4.51208 11.6753C4.87169 12.7745 5.89215 13.5825 7.10554 13.6088C6.16123 14.3475 4.96223 14.7925 3.66423 14.7925C3.43662 14.7925 3.21831 14.7824 3 14.7545C4.22946 15.5473 5.68654 16 7.25785 16C12.3652 16 15.1575 11.7692 15.1575 8.102C15.1575 7.97931 15.1533 7.86085 15.1474 7.74323C15.6982 7.35231 16.1611 6.86408 16.5385 6.30223Z" fill="#444444"/>
</svg>
